<svg xmlns="http://www.w3.org/2000/svg" viewBox="0 0 59 59" fill="none" aria-hidden="true" role="img">
  <!-- Un seul fond plein (carré = pas de bandes ni coins transparents au rendu) -->
  <rect width="59" height="59" fill="#9a4532" />
  <!-- Tortue centrée verticalement dans le carré (était calée sur hauteur 34) -->
  <g transform="translate(0, 12.5) translate(29.5, 17) scale(0.76) translate(-29.5, -17)">
  <path
    d="M32.998 20.1301C32.998 20.1301 41.29 20.1301 43.658 18.9451C46.027 17.7601 47.878 19.7595 47.878 19.7595C48.5443 18.2045 47.2117 16.5765 47.2117 16.5765C51.9497 18.9455 54.3187 16.5765 54.3187 16.5765C57.8727 16.5765 57.8727 2.36647 48.3957 1.17647C38.9197 -0.00852799 38.9197 11.8365 38.9197 11.8365L36.5507 13.0215C36.5507 13.0215 36.5507 15.3905 32.9967 20.1285L32.998 20.1301Z"
    fill="#5C9E31"
    stroke="#5C9E31"
    stroke-width="1.185"
    stroke-miterlimit="10"
  />
  <path
    d="M36.548 11.8401C36.548 11.8401 25.888 1.18007 14.038 5.91707C2.18801 10.6551 3.37801 22.4971 3.37801 22.4971C3.37801 22.4971 11.67 28.4201 22.328 24.8661C32.988 21.3121 34.318 18.2031 34.318 18.2031C34.318 18.2031 36.539 16.5741 36.539 11.8361"
    fill="#B1CC33"
  />
  <path
    d="M9.49801 26.1301L1.00201 29.1621C1.00201 29.1621 5.51001 33.0031 10.313 32.1151C15.116 31.2271 15.41 26.4981 15.41 26.4981L9.49901 26.1303"
    fill="#A57939"
  />
  <path
    d="M25.818 23.5301L29.446 30.7851C29.446 30.7851 35.369 31.9701 38.922 30.7851C42.475 29.6001 32.555 21.1611 29.816 21.8271"
    fill="#A57939"
  />
  <path
    d="M22.268 12.4501L12.857 15.3851C12.857 15.3851 12.857 17.7541 11.672 20.1231C10.487 22.4921 24.702 21.3081 27.072 17.7541L22.268 12.4501Z"
    fill="#5C9E31"
    stroke="#5C9E31"
    stroke-width="1.185"
    stroke-miterlimit="10"
  />
  <path
    d="M33.308 20.3001C33.308 20.3001 41.631 20.3001 44.008 19.1111C46.386 17.9221 48.244 19.9286 48.244 19.9286C48.9128 18.3676 47.5752 16.7326 47.5752 16.7326C52.3312 19.1106 54.7092 16.7326 54.7092 16.7326C58.2762 16.7326 58.2762 2.46256 48.7642 1.27256C39.2522 0.0825594 39.2522 11.9726 39.2522 11.9726L36.8742 13.1616C36.8742 13.1616 36.8742 15.5396 33.3072 20.2956L33.308 20.3001Z"
    stroke="black"
    stroke-width="2.378"
    stroke-miterlimit="10"
    stroke-linecap="round"
    stroke-linejoin="round"
  />
  <path
    d="M36.878 11.9701C36.878 11.9701 26.178 1.27012 14.288 6.02512C2.39803 10.7811 3.58803 22.6751 3.58803 22.6751C3.58803 22.6751 11.911 28.6201 22.608 25.0531C33.305 21.4861 34.648 18.3651 34.648 18.3651C34.648 18.3651 36.877 16.7301 36.877 11.9741"
    stroke="black"
    stroke-width="2.378"
    stroke-miterlimit="10"
    stroke-linecap="round"
    stroke-linejoin="round"
  />
  <path
    d="M4.76804 18.4701C4.76804 18.4701 21.918 28.9701 34.498 10.7821"
    stroke="black"
    stroke-width="2.378"
    stroke-miterlimit="10"
    stroke-linecap="round"
    stroke-linejoin="round"
  />
  <path
    d="M11.908 20.3C11.908 20.3 15.475 15.0981 7.15204 11.9771"
    stroke="black"
    stroke-width="2.378"
    stroke-miterlimit="10"
    stroke-linecap="round"
    stroke-linejoin="round"
  />
  <path
    d="M13.092 15.538L22.5327 12.5893L23.793 6.026"
    stroke="black"
    stroke-width="2.378"
    stroke-miterlimit="10"
    stroke-linecap="round"
    stroke-linejoin="round"
  />
  <path
    d="M27.068 17.32L22.608 13.16"
    stroke="black"
    stroke-width="2.378"
    stroke-miterlimit="10"
    stroke-linecap="round"
    stroke-linejoin="round"
  />
  <path
    d="M9.71803 26.32L1.18903 29.363C1.18903 29.363 5.71403 33.219 10.535 32.327C15.356 31.4357 15.651 26.689 15.651 26.689L9.71703 26.3198"
    stroke="black"
    stroke-width="2.378"
    stroke-miterlimit="10"
    stroke-linecap="round"
    stroke-linejoin="round"
  />
  <path
    d="M26.098 23.7201L29.739 31.0031C29.739 31.0031 35.684 32.1921 39.251 31.0031C42.818 29.8141 32.86 21.3421 30.11 22.0111"
    stroke="black"
    stroke-width="2.378"
    stroke-miterlimit="10"
    stroke-linecap="round"
    stroke-linejoin="round"
  />
  <circle cx="49.502" cy="9.59314" r="1.25" fill="black" stroke="black" stroke-width="0.5" />
  </g>
</svg>
